<svg xmlns="http://www.w3.org/2000/svg" version="1.1" xmlns:xlink="http://www.w3.org/1999/xlink" xmlns:svgjs="http://svgjs.dev/svgjs" width="1000" height="625" viewBox="0 0 1000 625"><g transform="matrix(1,0,0,1,0,0)"><svg viewBox="0 0 576 360" data-background-color="#ffffff" preserveAspectRatio="xMidYMid meet" height="625" width="1000" xmlns="http://www.w3.org/2000/svg" xmlns:xlink="http://www.w3.org/1999/xlink"><g id="tight-bounds" transform="matrix(1,0,0,1,0,0)"><svg viewBox="0 0 576 360" height="360" width="576"><g><svg></svg></g><g><svg viewBox="0 0 576 360" height="360" width="576"><g><path d="M132.115 90l155.885-90 155.885 90v180l-155.885 90-155.885-90zM141.209 264.75l146.791 84.75 146.791-84.75v-169.5l-146.791-84.75-146.791 84.75z" fill="#755bb4" fill-rule="nonzero" stroke="none" stroke-width="1" stroke-linecap="butt" stroke-linejoin="miter" stroke-miterlimit="10" stroke-dasharray="" stroke-dashoffset="0" font-family="none" font-weight="none" font-size="none" text-anchor="none" style="mix-blend-mode: normal" data-fill-palette-color="tertiary"></path></g><g transform="matrix(1,0,0,1,172.8,129.58167938931297)"><svg viewBox="0 0 230.39999999999998 100.83664122137405" height="100.83664122137405" width="230.39999999999998"><g><svg viewBox="0 0 230.39999999999998 100.83664122137405" height="100.83664122137405" width="230.39999999999998"><g><svg viewBox="0 0 230.39999999999998 100.83664122137405" height="100.83664122137405" width="230.39999999999998"><g><svg viewBox="0 0 230.39999999999998 100.83664122137405" height="100.83664122137405" width="230.39999999999998"><g><svg viewBox="0 0 230.39999999999998 100.83664122137405" height="100.83664122137405" width="230.39999999999998"><g><svg viewBox="0 0 230.39999999999998 100.83664122137405" height="100.83664122137405" width="230.39999999999998"><g transform="matrix(1,0,0,1,0,0)"><svg width="230.39999999999998" viewBox="1.1 -33.95 78.60000000000001 34.400000000000006" height="100.83664122137405" data-palette-color="#755bb4"><path d="M21.25 0.45L21.25 0.45 9.4-25.95 10.35-25.95 8.8-10.65Q8.5-7.55 8.7-5.93 8.9-4.3 9.7-3.68 10.5-3.05 11.9-2.9L11.9-2.9Q12.1-2.25 12.15-1.43 12.2-0.6 12.2 0.15L12.2 0.15Q11.25 0.05 9.7 0.03 8.15 0 6.8 0L6.8 0Q5.9 0 4.8 0.03 3.7 0.05 2.7 0.08 1.7 0.1 1.1 0.15L1.1 0.15Q1.1-0.6 1.18-1.43 1.25-2.25 1.45-2.9L1.45-2.9Q2.75-3.05 3.55-3.68 4.35-4.3 4.85-5.95 5.35-7.6 5.6-10.75L5.6-10.75 6.95-25.6Q7.15-27.75 6.93-28.88 6.7-30 5.93-30.45 5.15-30.9 3.75-30.9L3.75-30.9Q3.5-31.6 3.45-32.35 3.4-33.1 3.4-33.95L3.4-33.95Q4.05-33.9 5.05-33.88 6.05-33.85 7.1-33.83 8.15-33.8 8.85-33.8L8.85-33.8Q9.6-33.8 10.65-33.83 11.7-33.85 12.68-33.88 13.65-33.9 14.25-33.95L14.25-33.95 25.75-7.6 24.25-7.6 34.2-33.95Q34.95-33.9 36-33.88 37.05-33.85 38.08-33.83 39.1-33.8 39.85-33.8L39.85-33.8Q40.55-33.8 41.53-33.83 42.5-33.85 43.5-33.88 44.5-33.9 45.2-33.95L45.2-33.95Q45.2-33.15 45.13-32.35 45.05-31.55 44.85-30.9L44.85-30.9Q42.8-30.9 42.03-29.78 41.25-28.65 41.55-25.45L41.55-25.45 43.15-9.5Q43.4-6.8 43.8-5.43 44.2-4.05 44.93-3.58 45.65-3.1 46.9-2.95L46.9-2.95Q47.1-2.3 47.15-1.5 47.2-0.7 47.2 0.15L47.2 0.15Q46.65 0.1 45.68 0.08 44.7 0.05 43.5 0.03 42.3 0 41.18 0 40.05 0 39.25 0L39.25 0Q38.2 0 36.85 0.03 35.5 0.05 34.27 0.08 33.05 0.1 32.3 0.15L32.3 0.15Q32.3-0.7 32.4-1.45 32.5-2.2 32.7-2.9L32.7-2.9Q34.25-3.1 34.98-3.58 35.7-4.05 35.8-5.28 35.9-6.5 35.65-8.9L35.65-8.9 33.85-25.95 34.65-25.95 24.2 0.05Q23.65 0.25 22.83 0.35 22 0.45 21.25 0.45ZM50.45-33.95L50.45-33.95Q51.4-33.9 52.92-33.85 54.45-33.8 55.75-33.8L55.75-33.8Q57.05-33.8 58.72-33.83 60.4-33.85 62.12-33.88 63.85-33.9 65.15-33.9L65.15-33.9Q69.35-33.9 72.1-33.15 74.85-32.4 76.2-30.75 77.55-29.1 77.55-26.35L77.55-26.35Q77.55-23.3 75.55-21.13 73.55-18.95 69.95-18.45L69.95-18.45Q73.05-18.25 75.22-17.28 77.4-16.3 78.55-14.45 79.7-12.6 79.7-9.75L79.7-9.75Q79.7-6.95 78.3-4.75 76.9-2.55 73.85-1.28 70.8 0 65.7 0L65.7 0Q63.9 0 61.82 0 59.75 0 57.7 0.03 55.65 0.05 53.77 0.08 51.9 0.1 50.4 0.15L50.4 0.15Q50.4-0.75 50.47-1.55 50.55-2.35 50.75-2.9L50.75-2.9Q52.1-3 52.82-3.43 53.55-3.85 53.85-4.95 54.15-6.05 54.15-8.2L54.15-8.2 54.15-25.95Q54.15-27.9 53.87-28.93 53.6-29.95 52.85-30.35 52.1-30.75 50.75-30.9L50.75-30.9Q50.55-31.45 50.5-32.35 50.45-33.25 50.45-33.95ZM60.9-30.25L61.6-31.95 61.6-7.95Q61.6-5.8 62.02-4.73 62.45-3.65 63.37-3.3 64.3-2.95 65.65-2.95L65.65-2.95Q68.35-2.95 69.87-4.6 71.4-6.25 71.4-9.15L71.4-9.15Q71.4-11.2 70.72-12.55 70.05-13.9 68.85-14.63 67.65-15.35 66.1-15.68 64.55-16 62.8-16L62.8-16 60.3-16 60.3-19 63.3-19Q65.7-19 67.15-19.75 68.6-20.5 69.25-21.85 69.9-23.2 69.9-24.95L69.9-24.95Q69.9-27.05 69-28.35 68.1-29.65 66.72-30.25 65.35-30.85 63.8-30.85L63.8-30.85Q63-30.85 62.35-30.7 61.7-30.55 60.9-30.25L60.9-30.25Z" opacity="1" transform="matrix(1,0,0,1,0,0)" fill="#755bb4" class="undefined-text-0" data-fill-palette-color="primary" id="text-0"></path></svg></g></svg></g></svg></g></svg></g></svg></g></svg></g></svg></g></svg></g><defs></defs></svg><rect width="576" height="360" fill="none" stroke="none" visibility="hidden"></rect></g></svg></g></svg>